<svg width="30" height="31" viewBox="0 0 30 31" fill="none" xmlns="http://www.w3.org/2000/svg">
<path d="M27.1877 4.25073H21.082V19.8976" stroke="black" stroke-linecap="round" stroke-linejoin="round"/>
<path d="M21.0813 19.8976C21.0813 20.9691 20.6556 21.9967 19.898 22.7545C19.1404 23.5122 18.1128 23.938 17.0413 23.9382C16.5106 23.9383 15.9851 23.8338 15.4948 23.6308C15.0045 23.4278 14.559 23.1301 14.1837 22.7549C13.8084 22.3797 13.5107 21.9343 13.3076 21.444C13.1045 20.9537 13 20.4282 13 19.8976C13 18.8259 13.4257 17.7982 14.1835 17.0404C14.9412 16.2826 15.969 15.8569 17.0406 15.8569C17.5713 15.8569 18.0968 15.9613 18.5871 16.1643C19.0774 16.3674 19.5229 16.665 19.8982 17.0402C20.2735 17.4154 20.5711 17.8609 20.7742 18.3511C20.9773 18.8414 21.0813 19.3669 21.0813 19.8976Z" stroke="black" stroke-linecap="round" stroke-linejoin="round"/>
<path d="M18.1256 25.9327C16.837 26.1643 15.5081 25.9773 14.3334 25.3992C13.1587 24.8211 12.1998 23.8822 11.5972 22.7198C10.9946 21.5575 10.7799 20.2328 10.9844 18.9396C11.1889 17.6464 11.802 16.4526 12.7339 15.533C13.6658 14.6133 14.8676 14.0161 16.1634 13.8288C17.4592 13.6414 18.7809 13.8737 19.9352 14.4916C21.0894 15.1096 22.0156 16.0808 22.5781 17.2631C23.1406 18.4454 23.3099 19.7766 23.0612 21.0621M12.705 15.5614L2.8125 5.66895" stroke="black" stroke-linecap="round" stroke-linejoin="round"/>
</svg>
