<svg width="30" height="31" viewBox="0 0 30 31" fill="none" xmlns="http://www.w3.org/2000/svg">
<path d="M28.701 6.77787L16.2989 0.415059C15.5845 0.048496 14.4153 0.048496 13.7009 0.415059L1.29902 6.77787C0.58453 7.14444 0 8.0442 0 8.77733V21.503C0.0555847 22.3568 0.546353 23.0639 1.29896 23.5024L13.701 29.8652C14.4154 30.2318 15.5846 30.2318 16.299 29.8652L28.701 23.5024C29.5086 23.0251 29.9683 22.3066 30 21.503V8.77733C29.971 8.00594 29.4511 7.22793 28.701 6.77787ZM4.99999 15.1402C4.94124 6.46305 18.0199 2.6316 23.6598 10.6942L19.3321 12.9196C16.7196 9.07979 10.2328 10.4528 9.99998 15.1402C10.0699 19.4603 16.4456 21.467 19.3324 17.3604L23.6602 19.5858C18.6897 27.2535 5.25055 24.4948 4.99999 15.1402ZM25 15.6338H23.8888V16.6212H22.7779V15.6338H21.6667V14.6465H22.7779V13.6592H23.8889V14.6465H25V15.6338ZM29.1667 15.6338H28.0555V16.6212H26.9444V15.6338H25.8334V14.6465H26.9446V13.6592H28.0555V14.6465H29.1667V15.6338Z" fill="black"/>
</svg>
