<svg width="16" height="17" viewBox="0 0 16 17" fill="none" xmlns="http://www.w3.org/2000/svg">
<g clip-path="url(#clip0_295_224)">
<path d="M9.02344 15.1396L10.0234 16.1396H2V2.13965H6C6 1.86361 6.05208 1.60579 6.15625 1.36621C6.26042 1.12663 6.40365 0.913086 6.58594 0.725586C6.76823 0.538086 6.97917 0.394857 7.21875 0.295898C7.45833 0.19694 7.71875 0.144857 8 0.139648C8.27604 0.139648 8.53385 0.191732 8.77344 0.295898C9.01302 0.400065 9.22656 0.543294 9.41406 0.725586C9.60156 0.907878 9.74479 1.11882 9.84375 1.3584C9.94271 1.59798 9.99479 1.8584 10 2.13965H14V10.1631L13 11.1631V3.13965H12V5.13965H4V3.13965H3V15.1396H9.02344ZM5 3.13965V4.13965H11V3.13965H9V2.13965C9 1.99902 8.97396 1.86882 8.92188 1.74902C8.86979 1.62923 8.79948 1.52507 8.71094 1.43652C8.6224 1.34798 8.51562 1.27507 8.39062 1.21777C8.26562 1.16048 8.13542 1.13444 8 1.13965C7.85938 1.13965 7.72917 1.16569 7.60938 1.21777C7.48958 1.26986 7.38542 1.34017 7.29688 1.42871C7.20833 1.51725 7.13542 1.62402 7.07812 1.74902C7.02083 1.87402 6.99479 2.00423 7 2.13965V3.13965H5ZM15.8516 11.4912L11.5 15.8506L9.39844 13.7412L10.1016 13.0381L11.5 14.4287L15.1484 10.7881L15.8516 11.4912Z" fill="#4D4C5C"/>
</g>
<defs>
<clipPath id="clip0_295_224">
<rect width="16" height="16" fill="white" transform="translate(0 0.139648)"/>
</clipPath>
</defs>
</svg>
