<svg width="30" height="31" viewBox="0 0 30 31" fill="none" xmlns="http://www.w3.org/2000/svg">
<path d="M25.2 2.29569C22.443 0.905415 18.822 0.140137 15 0.140137C11.178 0.140137 7.557 0.905415 4.8 2.29569C1.7055 3.86097 0 6.05403 0 8.47347V21.8068C0 24.2262 1.7055 26.4193 4.8 27.9846C7.5525 29.3735 11.1735 30.1401 15 30.1401C18.8265 30.1401 22.443 29.3749 25.2 27.9846C28.299 26.4193 30 24.2262 30 21.8068V8.47347C30 6.05403 28.2945 3.86097 25.2 2.29569ZM26.4 15.1401C26.4 17.5012 21.7185 20.1401 15 20.1401C8.2815 20.1401 3.6 17.5012 3.6 15.1401V13.9651C3.98665 14.2133 4.38721 14.4423 4.8 14.6512C7.5525 16.0401 11.1735 16.8068 15 16.8068C18.8265 16.8068 22.443 16.0415 25.2 14.6512C25.6128 14.4423 26.0134 14.2133 26.4 13.9651V15.1401ZM15 3.47347C21.7185 3.47347 26.4 6.11236 26.4 8.47347C26.4 10.8346 21.7185 13.4735 15 13.4735C8.2815 13.4735 3.6 10.8346 3.6 8.47347C3.6 6.11236 8.2815 3.47347 15 3.47347ZM15 26.8068C8.2815 26.8068 3.6 24.1679 3.6 21.8068V20.6318C3.98665 20.8799 4.38721 21.109 4.8 21.3179C7.5525 22.7068 11.1735 23.4735 15 23.4735C18.8265 23.4735 22.443 22.7082 25.2 21.3179C25.6128 21.109 26.0134 20.8799 26.4 20.6318V21.8068C26.4 24.1679 21.7185 26.8068 15 26.8068Z" fill="black"/>
</svg>
