<svg width="49" height="49" viewBox="0 0 49 49" fill="none" xmlns="http://www.w3.org/2000/svg">
<path d="M24.6582 4.60718C33.1732 4.60718 40.0782 10.3242 40.0782 17.3772C40.0782 24.4302 33.1752 28.7212 24.6582 28.7212C16.5682 28.5585 10.8372 26.0112 7.46523 21.0792C7.34449 20.8985 7.26069 20.6958 7.21864 20.4827C7.17659 20.2695 7.17713 20.0501 7.22023 19.8372C9.14823 10.2158 14.9609 5.13918 24.6582 4.60718ZM24.0822 12.5512C19.1856 13.0472 16.1892 15.3782 15.0932 19.5442C16.5866 20.8608 19.5832 21.5915 24.0832 21.7362C28.6032 21.6662 31.3422 20.3472 31.3952 17.2842C31.1142 13.9002 27.8242 12.4232 24.0822 12.5512Z" stroke="#5ACC66" stroke-linejoin="round"/>
<path d="M6.45173 24.8171C8.97773 32.0641 15.9447 36.0971 23.1057 36.0971C29.0457 36.0971 32.9817 33.5271 35.0457 29.6471L41.7017 33.8171C39.3817 39.4921 32.5037 43.6071 24.3787 43.6071C14.3497 43.6071 5.76173 36.8471 6.44873 25.0961C6.44873 25.0021 6.44973 24.9091 6.45173 24.8171Z" stroke="#4ADB47" stroke-linejoin="round"/>
</svg>
