<svg width="18" height="18" viewBox="0 0 18 18" fill="none" xmlns="http://www.w3.org/2000/svg">
<g clip-path="url(#clip0_352_1087)">
<path d="M16 2.5H4.5V15.5H16C16.5304 15.5 17.0391 15.2893 17.4142 14.9142C17.7893 14.5391 18 14.0304 18 13.5V4.5C18 3.96957 17.7893 3.46086 17.4142 3.08579C17.0391 2.71071 16.5304 2.5 16 2.5ZM11.25 12.736C10.2554 12.736 9.30161 12.3409 8.59835 11.6377C7.89509 10.9344 7.5 9.98056 7.5 8.986C7.5 7.126 8.8555 5.5865 10.6315 5.291C9.95989 5.6022 9.41472 6.13347 9.08628 6.79683C8.75784 7.46018 8.66583 8.21582 8.8255 8.93861C8.98516 9.66139 9.38692 10.308 9.96424 10.7712C10.5416 11.2345 11.2598 11.4867 12 11.486C12.6192 11.4857 13.2253 11.3084 13.7471 10.9751C14.2689 10.6417 14.6845 10.1662 14.945 9.6045C14.6495 11.381 13.11 12.736 11.25 12.736ZM13.805 7.524L13.1985 8.535L13.0945 7.3605L11.9455 7.0965L13.0305 6.6345L12.927 5.46L13.701 6.3495L14.786 5.8875L14.18 6.899L14.954 7.7885L13.805 7.524Z" fill="#004600"/>
<path d="M2 2.5C1.46957 2.5 0.960859 2.71071 0.585786 3.08579C0.210714 3.46086 0 3.96957 0 4.5L0 13.5C0 14.0304 0.210714 14.5391 0.585786 14.9142C0.960859 15.2893 1.46957 15.5 2 15.5H4.5V2.5H2Z" fill="#EEEEEE"/>
<path d="M14.7858 5.88746L13.7008 6.34946L12.9268 5.45996L13.0303 6.63446L11.9453 7.09646L13.0943 7.36046L13.1983 8.53496L13.8048 7.52396L14.9538 7.78846L14.1798 6.89896L14.7858 5.88746Z" fill="white"/>
<path d="M12 11.486C11.2598 11.4867 10.5416 11.2345 9.96424 10.7712C9.38692 10.308 8.98516 9.66141 8.8255 8.93862C8.66583 8.21584 8.75784 7.4602 9.08628 6.79684C9.41472 6.13349 9.95989 5.60222 10.6315 5.29102C8.8555 5.58702 7.5 7.12652 7.5 8.98602C7.5 9.98058 7.89509 10.9344 8.59835 11.6377C9.30161 12.3409 10.2554 12.736 11.25 12.736C13.11 12.736 14.6495 11.3805 14.945 9.60452C14.6846 10.1663 14.269 10.6419 13.7472 10.9753C13.2254 11.3086 12.6192 11.4858 12 11.486Z" fill="white"/>
</g>
<defs>
<clipPath id="clip0_352_1087">
<rect width="18" height="18" fill="white"/>
</clipPath>
</defs>
</svg>
