<svg width="25" height="25" viewBox="0 0 25 25" fill="none" xmlns="http://www.w3.org/2000/svg">
<path d="M21.9461 10.8716H21.1406V10.8301H12.1406V14.8301H17.7921C16.9676 17.1586 14.7521 18.8301 12.1406 18.8301C8.82713 18.8301 6.14062 16.1436 6.14062 12.8301C6.14062 9.51658 8.82713 6.83008 12.1406 6.83008C13.6701 6.83008 15.0616 7.40708 16.1211 8.34958L18.9496 5.52108C17.1636 3.85658 14.7746 2.83008 12.1406 2.83008C6.61812 2.83008 2.14062 7.30758 2.14062 12.8301C2.14062 18.3526 6.61812 22.8301 12.1406 22.8301C17.6631 22.8301 22.1406 18.3526 22.1406 12.8301C22.1406 12.1596 22.0716 11.5051 21.9461 10.8716Z" fill="#FFC107"/>
<path d="M3.29297 8.17558L6.57847 10.5851C7.46747 8.38408 9.62047 6.83008 12.14 6.83008C13.6695 6.83008 15.061 7.40708 16.1205 8.34958L18.949 5.52108C17.163 3.85658 14.774 2.83008 12.14 2.83008C8.29897 2.83008 4.96797 4.99858 3.29297 8.17558Z" fill="#FF3D00"/>
<path d="M12.1408 22.8302C14.7238 22.8302 17.0708 21.8417 18.8453 20.2342L15.7503 17.6152C14.7126 18.4044 13.4445 18.8312 12.1408 18.8302C9.53978 18.8302 7.33128 17.1717 6.49928 14.8572L3.23828 17.3697C4.89328 20.6082 8.25428 22.8302 12.1408 22.8302Z" fill="#4CAF50"/>
<path d="M21.9461 10.8716H21.1406V10.8301H12.1406V14.8301H17.7921C17.3977 15.9383 16.6873 16.9067 15.7486 17.6156L15.7501 17.6146L18.8451 20.2336C18.6261 20.4326 22.1406 17.8301 22.1406 12.8301C22.1406 12.1596 22.0716 11.5051 21.9461 10.8716Z" fill="#1976D2"/>
</svg>
