<svg width="30" height="31" viewBox="0 0 30 31" fill="none" xmlns="http://www.w3.org/2000/svg">
<path d="M17.2233 21.8985L15.7933 23.8785C17.15 25.0885 18.8367 25.6935 20.8533 25.6935C22.3933 25.6568 23.5667 25.2601 24.3733 24.5018C25.1933 23.7318 25.6017 22.8151 25.6017 21.7518C25.6017 20.7135 25.315 19.8568 24.74 19.1851C24.1667 18.5135 23.2 17.9751 21.8433 17.5718C20.72 17.2301 19.9267 16.9185 19.46 16.6368C18.9967 16.3435 18.7633 15.9885 18.7633 15.5735C18.7633 15.1951 18.9533 14.8901 19.3317 14.6568C19.7117 14.4235 20.2183 14.3085 20.8533 14.3085C21.32 14.3085 21.8433 14.4001 22.43 14.5835C23.0167 14.7418 23.5367 15.0001 23.9883 15.3535L25.2717 13.3551C24.1483 12.4501 22.6567 11.9985 20.7983 11.9985C19.4667 11.9985 18.3733 12.3401 17.5167 13.0251C16.6367 13.7085 16.1967 14.5585 16.1967 15.5735C16.21 16.6485 16.5633 17.4868 17.26 18.0851C17.97 18.6851 18.9767 19.1735 20.285 19.5518C21.3733 19.8935 22.1133 20.2351 22.5033 20.5785C22.6835 20.7321 22.8277 20.9233 22.9259 21.1387C23.0241 21.3541 23.0739 21.5884 23.0717 21.8251C23.0808 22.0419 23.0333 22.2573 22.934 22.4502C22.8346 22.643 22.6868 22.8067 22.505 22.9251C22.1133 23.1935 21.55 23.3285 20.8167 23.3285C19.62 23.3401 18.4217 22.8635 17.2233 21.8985ZM8.00667 22.9618C7.60413 22.7083 7.25531 22.3781 6.98 21.9901L5.25667 23.4018C5.77 24.2685 6.40667 24.8751 7.16333 25.2168C7.87167 25.5335 8.685 25.6935 9.60167 25.6935C10.1017 25.6935 10.6217 25.6135 11.16 25.4551C11.7056 25.2923 12.2114 25.0176 12.645 24.6485C13.44 24.0135 13.855 22.9735 13.8917 21.5318V12.2185H11.4167V21.0551C11.4167 21.8985 11.2267 22.4918 10.85 22.8335C10.47 23.1635 9.99333 23.3285 9.41833 23.3285C8.86833 23.3285 8.39833 23.2068 8.00667 22.9618ZM0 5.14014C0 3.81405 0.526784 2.54228 1.46447 1.6046C2.40215 0.666921 3.67392 0.140137 5 0.140137H25C26.3261 0.140137 27.5979 0.666921 28.5355 1.6046C29.4732 2.54228 30 3.81405 30 5.14014V25.1401C30 26.4662 29.4732 27.738 28.5355 28.6757C27.5979 29.6134 26.3261 30.1401 25 30.1401H5C3.67392 30.1401 2.40215 29.6134 1.46447 28.6757C0.526784 27.738 0 26.4662 0 25.1401V5.14014ZM5 3.47347C4.55797 3.47347 4.13405 3.64906 3.82149 3.96163C3.50893 4.27419 3.33333 4.69811 3.33333 5.14014V25.1401C3.33333 25.5822 3.50893 26.0061 3.82149 26.3186C4.13405 26.6312 4.55797 26.8068 5 26.8068H25C25.442 26.8068 25.866 26.6312 26.1785 26.3186C26.4911 26.0061 26.6667 25.5822 26.6667 25.1401V5.14014C26.6667 4.69811 26.4911 4.27419 26.1785 3.96163C25.866 3.64906 25.442 3.47347 25 3.47347H5Z" fill="black"/>
</svg>
