<svg width="25" height="25" viewBox="0 0 25 25" fill="none" xmlns="http://www.w3.org/2000/svg">
<path fill-rule="evenodd" clip-rule="evenodd" d="M10.4439 3.71582H8.41754V5.74221H3.35156V7.7686H11.4723C11.4248 9.30912 10.965 10.8087 10.141 12.1112L7.10748 9.07866L5.67482 10.5113L8.8826 13.7191C8.58168 14.0352 8.2686 14.327 7.95248 14.5955C6.86401 15.5102 5.64699 16.2599 4.34044 16.8205C4.24091 16.8626 4.14059 16.9028 4.03952 16.9411L4.02736 16.9451L4.36476 17.9006L4.70317 18.856L4.70722 18.854L4.71431 18.8519L4.73964 18.8418C4.8703 18.7938 4.99969 18.7425 5.12769 18.6878C6.6239 18.047 8.01722 17.1887 9.26254 16.1406C9.61716 15.8397 9.97077 15.5104 10.3153 15.1518L11.754 16.5905L13.1866 15.1578L11.603 13.5742C12.7894 11.866 13.4491 9.84768 13.5007 7.7686H15.5099V5.74221H10.4439V3.71582ZM18.8058 20.9401L18.201 19.3231H14.8412L14.2333 20.9401H12.1664L15.4734 12.4293H17.5647L20.8727 20.9401H18.8058ZM16.5211 14.8336L17.5545 17.5966H15.4866L16.5201 14.8336H16.5211Z" fill="#4D4C5C"/>
</svg>
