<svg width="30" height="31" viewBox="0 0 30 31" fill="none" xmlns="http://www.w3.org/2000/svg">
<path d="M21.25 18.8901H15M8.75 12.6401L9.0425 12.8839C10.645 14.2189 11.4462 14.8864 11.4462 15.7651C11.4462 16.6439 10.6463 17.3114 9.0425 18.6464L8.75 18.8901" stroke="black" stroke-width="1.5" stroke-linecap="round"/>
<path d="M27.5 15.1401C27.5 21.0326 27.5 23.9789 25.6687 25.8089C23.84 27.6401 20.8925 27.6401 15 27.6401C9.1075 27.6401 6.16125 27.6401 4.33 25.8089C2.5 23.9801 2.5 21.0326 2.5 15.1401C2.5 9.24764 2.5 6.30139 4.33 4.47014C6.1625 2.64014 9.1075 2.64014 15 2.64014C20.8925 2.64014 23.8387 2.64014 25.6687 4.47014C26.8862 5.68764 27.2937 7.39889 27.4312 10.1401" stroke="black" stroke-width="1.5" stroke-linecap="round"/>
</svg>
