<svg width="30" height="31" viewBox="0 0 30 31" fill="none" xmlns="http://www.w3.org/2000/svg">
<g clip-path="url(#clip0_264_146)">
<path d="M9.97982 20.6367C9.83919 19.7191 9.45248 18.9738 8.5138 18.6134C8.14642 18.4727 7.82826 18.2161 7.46615 18.0544C7.05482 17.8698 6.63646 17.694 6.20228 17.5798C5.87357 17.4919 5.56771 17.6395 5.37259 17.9278C5.18802 18.1985 5.32162 18.4534 5.4763 18.6801C5.65033 18.935 5.84369 19.1776 6.0388 19.4167C6.36224 19.8139 6.70501 20.1954 7.01966 20.598C7.32025 20.9829 7.57689 21.4101 7.53294 21.9199C7.43626 23.0378 6.93001 23.9642 6.11439 24.7183C6.02474 24.7992 5.86654 24.8572 5.75052 24.8466C5.23021 24.7904 4.75736 24.5935 4.37591 24.2296C3.93822 23.813 4.00501 23.3226 4.52884 23.0185C4.65365 22.9464 4.78373 22.8796 4.89798 22.7917C5.21791 22.5509 5.32513 22.1396 5.15111 21.7827C5.06849 21.6105 4.97533 21.4242 4.83822 21.2993C4.16849 20.6894 3.51101 20.06 2.79382 19.5046C1.05529 18.1546 0.162379 16.3687 0.0252106 14.2065C-0.129477 11.8053 0.42775 9.56407 1.69513 7.51265C2.17502 6.73394 2.734 5.99208 3.59181 5.60718C4.17541 5.34527 4.81525 5.19761 5.43933 5.03413C7.15677 4.58237 8.88992 4.24312 10.6777 4.54546C12.2175 4.80386 13.3443 5.59663 13.8611 7.11011C14.2004 8.09976 14.2812 9.12281 14.1758 10.1705C13.9684 12.229 12.4478 14.0694 10.465 14.6143C9.60541 14.8499 9.13607 14.718 8.61927 14.0026C8.24837 13.4876 7.94076 12.9268 7.60853 12.3836C7.55931 12.3027 7.52416 12.2096 7.48197 12.1234C7.44154 12.0373 7.39759 11.9547 7.35541 11.8686C7.48021 12.7615 7.68763 13.6212 8.17455 14.3875C8.43822 14.8041 8.78978 15.1117 9.30482 15.1574C11.1997 15.3279 12.7994 14.7057 13.935 13.1816C15.2059 11.4765 15.4854 9.51474 15.118 7.44931C15.0459 7.0415 14.9246 6.64247 14.8385 6.23642C14.7805 5.9745 14.8842 5.78114 15.1426 5.68974C15.2621 5.64931 15.3852 5.61591 15.5047 5.5913C17.0551 5.25732 18.6231 5.14657 20.2034 5.30654C21.9964 5.48583 23.6927 5.97802 25.2097 6.97476C27.5845 8.53745 29.0558 10.7611 29.8556 13.4507C29.9717 13.8409 29.9892 14.268 29.9998 14.6794C30.0068 14.9536 29.831 15.0257 29.6218 14.8534C29.3916 14.6654 29.1806 14.4509 28.982 14.2294C28.7974 14.0202 28.6498 13.7812 28.4705 13.5615C28.3316 13.3892 28.2103 13.4156 28.1435 13.63C28.1013 13.7601 28.0644 13.8884 28.0275 14.0185C27.6127 15.4986 26.9588 16.8486 25.8988 17.9859C25.7511 18.1459 25.6193 18.3832 25.6017 18.5941C25.556 19.1777 25.5226 19.7736 25.5789 20.3555C25.6949 21.6053 25.876 22.8498 26.0166 24.0979C26.0957 24.8028 25.8689 25.2176 25.2062 25.462C24.7404 25.6325 24.2412 25.7573 23.749 25.7925C22.965 25.847 22.174 25.8083 21.3865 25.8083C21.3654 24.9294 21.441 24.0663 20.6148 23.5952C20.7748 22.943 20.9594 22.3243 21.0701 21.6915C21.1615 21.1659 21.0842 20.6491 20.715 20.2184C20.3687 19.8124 19.9345 19.7016 19.5372 19.9336C18.3402 20.6315 17.0956 20.635 15.8282 20.178C15.2463 19.967 14.8403 20.0866 14.5185 20.6174C14.1723 21.1887 14.0264 21.8303 14.065 22.479C14.1143 23.2964 14.2566 24.105 14.3656 24.9189C14.4254 25.3741 14.3744 25.4919 13.9227 25.6079C12.9189 25.8628 11.8977 25.8909 10.871 25.8083C10.8165 25.803 10.762 25.7802 10.7269 25.7714C10.6759 24.9189 10.7656 24.0329 9.74955 23.5793C10.1995 22.6249 10.138 21.6352 9.98334 20.6456L9.97982 20.6368V20.6367ZM3.91179 17.2915C4.06121 17.1509 4.18074 16.9312 4.22293 16.729C4.32839 16.2228 3.94871 15.5443 3.50925 15.3562C3.27546 15.2542 3.07156 15.2911 2.90632 15.4775C2.50378 15.9327 2.10652 16.3933 1.71095 16.8557C1.64416 16.9348 1.58439 17.0279 1.53693 17.1211C1.37873 17.4252 1.47189 17.6467 1.80939 17.7293C2.0133 17.7803 2.22423 17.7908 2.43341 17.8207C2.97834 17.768 3.50568 17.6766 3.91173 17.2934L3.91179 17.2915ZM3.9575 12.2307C3.95574 11.8686 3.65339 11.5663 3.29656 11.5645C2.92918 11.5628 2.61277 11.8915 2.62507 12.2536C2.64089 12.6175 2.94324 12.9093 3.30535 12.9022C3.67097 12.8969 3.96277 12.5981 3.95925 12.2325L3.9575 12.2307Z" fill="black"/>
</g>
<defs>
<clipPath id="clip0_264_146">
<rect width="30" height="30" fill="white" transform="translate(0 0.140137)"/>
</clipPath>
</defs>
</svg>
