<svg width="32" height="33" viewBox="0 0 32 33" fill="none" xmlns="http://www.w3.org/2000/svg">
<path d="M16 11.1401H4.33333C3.44928 11.1401 2.60143 11.4913 1.97631 12.1164C1.35119 12.7416 1 13.5894 1 14.4735V21.1401C1 22.0242 1.35119 22.872 1.97631 23.4972C2.60143 24.1223 3.44928 24.4735 4.33333 24.4735H9.33333M16 21.1401H27.6667C28.5507 21.1401 29.3986 20.7889 30.0237 20.1638C30.6488 19.5387 31 18.6909 31 17.8068V11.1401C31 10.2561 30.6488 9.40824 30.0237 8.78311C29.3986 8.15799 28.5507 7.8068 27.6667 7.8068H22.6667M9.33333 11.1401V4.47347C9.33333 3.58941 9.68452 2.74157 10.3096 2.11645C10.9348 1.49133 11.7826 1.14014 12.6667 1.14014H19.3333C20.2174 1.14014 21.0652 1.49133 21.6904 2.11645C22.3155 2.74157 22.6667 3.58941 22.6667 4.47347V12.8068C22.6667 13.6909 22.3155 14.5387 21.6904 15.1638C21.0652 15.7889 20.2174 16.1401 19.3333 16.1401H12.6667C11.7826 16.1401 10.9348 16.4913 10.3096 17.1164C9.68452 17.7416 9.33333 18.5894 9.33333 19.4735V27.8068C9.33333 28.6909 9.68452 29.5387 10.3096 30.1638C10.9348 30.7889 11.7826 31.1401 12.6667 31.1401H19.3333C20.2174 31.1401 21.0652 30.7889 21.6904 30.1638C22.3155 29.5387 22.6667 28.6909 22.6667 27.8068V21.1401M14.3333 6.14014V6.1568M17.6667 26.1401V26.1568" stroke="black" stroke-width="2" stroke-linecap="round" stroke-linejoin="round"/>
</svg>
