<svg width="4" height="5" viewBox="0 0 4 5" fill="none" xmlns="http://www.w3.org/2000/svg">
<path d="M0.12 2.16C0.12 1.68 0.194667 1.296 0.344 1.008C0.493333 0.709333 0.696 0.495999 0.952 0.368C1.208 0.24 1.496 0.176 1.816 0.176C2.136 0.176 2.424 0.24 2.68 0.368C2.94667 0.495999 3.15467 0.709333 3.304 1.008C3.45333 1.296 3.528 1.68 3.528 2.16C3.528 2.62933 3.45333 3.01333 3.304 3.312C3.15467 3.6 2.94667 3.81333 2.68 3.952C2.424 4.08 2.136 4.144 1.816 4.144C1.496 4.144 1.208 4.08 0.952 3.952C0.696 3.81333 0.493333 3.6 0.344 3.312C0.194667 3.01333 0.12 2.62933 0.12 2.16Z" fill="#A3120A"/>
</svg>
