<svg width="38" height="68" viewBox="0 0 38 68" fill="none" xmlns="http://www.w3.org/2000/svg">
<path fill-rule="evenodd" clip-rule="evenodd" d="M16.5731 16.8813C19.3094 16.881 21.9925 17.6383 24.3248 19.0694C26.6571 20.5006 28.5476 22.5496 29.7867 24.9893C31.0258 27.4291 31.5652 30.1643 31.345 32.8918C31.1248 35.6193 30.1536 38.2326 28.5391 40.4419L35.2825 47.1853L32.059 50.411L25.3157 43.6654C23.4261 45.0455 21.2366 45.9585 18.9263 46.3297C16.6161 46.7009 14.2507 46.5196 12.024 45.8009C9.79723 45.0821 7.77235 43.8462 6.11509 42.1944C4.45783 40.5425 3.21531 38.5217 2.48924 36.2973C1.76318 34.0729 1.57421 31.7082 1.93781 29.3968C2.3014 27.0853 3.20722 24.8928 4.58112 22.9987C5.95502 21.1047 7.75794 19.5629 9.84229 18.4996C11.9266 17.4363 14.2332 16.8818 16.5731 16.8813ZM16.5731 21.4407C15.2259 21.4407 13.8919 21.7061 12.6473 22.2216C11.4026 22.7372 10.2717 23.4928 9.31913 24.4454C8.36653 25.398 7.61088 26.5289 7.09534 27.7735C6.5798 29.0182 6.31445 30.3521 6.31445 31.6993C6.31445 33.0465 6.5798 34.3805 7.09534 35.6251C7.61088 36.8698 8.36653 38.0007 9.31913 38.9533C10.2717 39.9059 11.4026 40.6615 12.6473 41.177C13.8919 41.6926 15.2259 41.9579 16.5731 41.9579C19.2938 41.9579 21.9031 40.8771 23.827 38.9533C25.7508 37.0294 26.8317 34.4201 26.8317 31.6993C26.8317 28.9786 25.7508 26.3693 23.827 24.4454C21.9031 22.5215 19.2938 21.4407 16.5731 21.4407Z" fill="#6A697C"/>
</svg>
