<svg width="32" height="32" viewBox="0 0 32 32" fill="none" xmlns="http://www.w3.org/2000/svg">
<path d="M31 16.1401C31 20.1184 29.4196 23.9337 26.6066 26.7467C23.7936 29.5598 19.9782 31.1401 16 31.1401C12.0218 31.1401 8.20644 29.5598 5.3934 26.7467C2.58035 23.9337 1 20.1184 1 16.1401M31 16.1401C31 12.1619 29.4196 8.34658 26.6066 5.53354C23.7936 2.72049 19.9782 1.14014 16 1.14014C12.0218 1.14014 8.20644 2.72049 5.3934 5.53354C2.58035 8.34658 1 12.1619 1 16.1401M31 16.1401H1" stroke="black" stroke-linecap="round" stroke-linejoin="round"/>
<path d="M21.7689 16.1401C21.4855 21.6255 19.4651 26.8786 15.9997 31.1401C12.5343 26.8786 10.5138 21.6255 10.2305 16.1401C10.5138 10.6548 12.5343 5.40164 15.9997 1.14014C19.4651 5.40164 21.4855 10.6548 21.7689 16.1401Z" stroke="black" stroke-linecap="round" stroke-linejoin="round"/>
</svg>
